<svg width="26" height="36" viewBox="0 0 26 36" fill="none" xmlns="http://www.w3.org/2000/svg">
<g clip-path="url(#clip0_36_37)">
<path d="M17.5629 26.949C17.3766 27.1354 17.1554 27.2832 16.9119 27.3841C16.6684 27.485 16.4075 27.5369 16.1439 27.5369C15.8804 27.5369 15.6194 27.485 15.376 27.3841C15.1325 27.2832 14.9113 27.1354 14.725 26.949L3.18195 15.4078C1.51712 13.709 0.58997 11.4218 0.601983 9.04323C0.613996 6.66469 1.5642 4.38699 3.2461 2.70509C4.92801 1.02318 7.20571 0.0729805 9.58425 0.0609674C11.9628 0.0489542 14.25 0.976099 15.9488 2.64093L23.2441 9.93627C23.6195 10.3136 23.8296 10.8245 23.8282 11.3567C23.8269 11.8889 23.6141 12.3988 23.2368 12.7742C22.8595 13.1495 22.3486 13.3596 21.8164 13.3583C21.2842 13.3569 20.7743 13.1442 20.3989 12.7669L13.1127 5.47152C12.1714 4.53022 10.8947 4.0014 9.56354 4.0014C8.23234 4.0014 6.95566 4.53022 6.01436 5.47152C5.07306 6.41282 4.54424 7.6895 4.54424 9.0207C4.54424 10.3519 5.07306 11.6286 6.01436 12.5699L17.5574 24.1129C17.934 24.4884 18.1461 24.998 18.1472 25.5298C18.1482 26.0616 17.938 26.5721 17.5629 26.949Z" fill="white"/>
<path d="M23.173 32.5591C21.4785 34.2493 19.1829 35.1985 16.7896 35.1985C14.3962 35.1985 12.1006 34.2493 10.4061 32.5591L3.11992 25.2638C2.91773 25.0814 2.75478 24.8597 2.64101 24.6123C2.52724 24.3649 2.46503 24.097 2.45816 23.8248C2.45129 23.5525 2.49991 23.2818 2.60106 23.0289C2.7022 22.7761 2.85376 22.5465 3.0465 22.3542C3.23923 22.1618 3.46911 22.0107 3.72213 21.91C3.97515 21.8094 4.24601 21.7613 4.51822 21.7687C4.79042 21.7761 5.05828 21.8388 5.30546 21.953C5.55264 22.0673 5.77397 22.2307 5.95598 22.4332L13.2422 29.7285C14.1849 30.6587 15.4573 31.1783 16.7817 31.1738C18.1061 31.1694 19.3749 30.6413 20.3114 29.7049C21.2479 28.7684 21.776 27.4995 21.7804 26.1751C21.7848 24.8508 21.2653 23.5784 20.3351 22.6356L8.79204 11.0871C8.41572 10.7108 8.2043 10.2004 8.2043 9.66819C8.2043 9.13598 8.41572 8.62557 8.79204 8.24924C9.16837 7.87292 9.67878 7.6615 10.211 7.6615C10.7432 7.6615 11.2536 7.87292 11.6299 8.24924L23.173 19.7923C24.8636 21.4865 25.8131 23.7822 25.8131 26.1757C25.8131 28.5692 24.8636 30.8649 23.173 32.5591Z" fill="white"/>
</g>
<defs>
<clipPath id="clip0_36_37">
<rect width="25.2692" height="35.2" fill="white" transform="translate(0.542847)"/>
</clipPath>
</defs>
</svg>
