<svg width="34" height="34" viewBox="0 0 34 34" fill="none" xmlns="http://www.w3.org/2000/svg">
<path d="M23.9833 0.333252H10.0166C3.94998 0.333252 0.333313 3.94992 0.333313 10.0166V23.9666C0.333313 30.0499 3.94998 33.6666 10.0166 33.6666H23.9666C30.0333 33.6666 33.65 30.0499 33.65 23.9833V10.0166C33.6666 3.94992 30.05 0.333252 23.9833 0.333252ZM16.1666 25.7499C16.1666 26.3499 15.5666 26.7499 15.0166 26.5166C13 25.6499 10.3666 24.8499 8.53331 24.6166L8.21665 24.5833C7.19998 24.4499 6.36665 23.4999 6.36665 22.4666V9.63325C6.36665 8.34992 7.39998 7.39992 8.66665 7.49992C10.75 7.66659 13.8333 8.66658 15.7666 9.76658C16.0333 9.91658 16.1666 10.1999 16.1666 10.4833V25.7499ZM27.6333 22.4499C27.6333 23.4833 26.8 24.4333 25.7833 24.5666L25.4333 24.5999C23.6166 24.8499 21 25.6333 18.9833 26.4833C18.4333 26.7166 17.8333 26.3166 17.8333 25.7166V10.4666C17.8333 10.1666 17.9833 9.88325 18.25 9.73325C20.1833 8.64992 23.2 7.68325 25.25 7.49992H25.3166C26.6 7.49992 27.6333 8.53325 27.6333 9.81659V22.4499Z" fill="#546FFF"/>
</svg>
