<?xml version="1.0" encoding="utf-8"?>
<!-- Generator: Adobe Illustrator 22.0.0, SVG Export Plug-In . SVG Version: 6.00 Build 0)  -->
<svg version="1.1" id="Layer_1" xmlns="http://www.w3.org/2000/svg" xmlns:xlink="http://www.w3.org/1999/xlink" x="0px" y="0px"
	 viewBox="0 0 34 34" style="enable-background:new 0 0 34 34;" xml:space="preserve">
<style type="text/css">
	.st0{fill:#FFFFFF;}
	.st1{fill:#546FFF;}
</style>
<path class="st0" d="M22.7,31L22.7,31c-3.3,0-5.9-2.7-5.9-5.9V10.9c0-3.3,2.7-5.9,5.9-5.9h0c3.3,0,5.9,2.7,5.9,5.9v14.2
	C28.6,28.3,26,31,22.7,31z"/>
<path class="st0" d="M11.1,30.2L11.1,30.2c-3.3,0-5.9-2.7-5.9-5.9V10.1c0-3.3,2.7-5.9,5.9-5.9h0c3.3,0,5.9,2.7,5.9,5.9v14.2
	C17,27.5,14.3,30.2,11.1,30.2z"/>
<path class="st1" d="M24,0.3H10c-6.1,0-9.7,3.6-9.7,9.7v14c0,6.1,3.6,9.7,9.7,9.7h14c6.1,0,9.7-3.6,9.7-9.7V10
	C33.7,3.9,30,0.3,24,0.3z M16.2,25.7c0,0.6-0.6,1-1.1,0.8c-2-0.9-4.6-1.7-6.5-1.9l-0.3,0c-1-0.1-1.8-1.1-1.8-2.1V9.6
	c0-1.3,1-2.2,2.3-2.1c2.1,0.2,5.2,1.2,7.1,2.3c0.3,0.2,0.4,0.4,0.4,0.7V25.7z M27.6,22.4c0,1-0.8,2-1.9,2.1l-0.4,0
	c-1.8,0.3-4.4,1-6.5,1.9c-0.5,0.2-1.1-0.2-1.1-0.8V10.5c0-0.3,0.1-0.6,0.4-0.7c1.9-1.1,5-2,7-2.2h0.1c1.3,0,2.3,1,2.3,2.3V22.4z"/>
</svg>
